<svg width="28" height="28" viewBox="0 0 28 28" fill="none" xmlns="http://www.w3.org/2000/svg">
<path fill-rule="evenodd" clip-rule="evenodd" d="M6.53622 14.7203C6.44267 14.6186 6.3484 14.5169 6.25337 14.4159C5.28445 13.388 4.32353 12.3593 3.42853 11.2642C3.21167 10.999 2.80531 10.4852 2.38502 10.2101C2.08441 10.0133 1.76763 9.92129 1.47252 9.94392C1.2845 9.95824 1.00672 10.0385 0.851497 10.3897C0.825358 10.4487 0.792702 10.5508 0.775183 10.6823C0.747035 10.8949 0.744535 11.2788 0.747254 11.3321C0.783779 12.1084 0.822021 12.8509 0.922079 13.6221C1.01405 14.3319 1.06535 15.045 1.16712 15.7541C1.31936 16.8151 1.53276 17.8398 1.86787 18.8598C1.99219 19.2386 2.40079 19.4448 2.77952 19.3205C3.15789 19.1961 3.36446 18.7879 3.24014 18.4092C2.93167 17.4697 2.73695 16.5262 2.59709 15.549C2.49607 14.8464 2.44553 14.1395 2.35431 13.4363C2.2951 12.9788 2.2592 12.5319 2.23217 12.0814L2.31005 12.1783C3.22685 13.2998 4.21 14.3538 5.20224 15.4065C5.57346 15.8006 5.93079 16.2049 6.30845 16.5933C6.33817 16.6418 6.47547 16.8642 6.54459 16.9415C6.65954 17.0703 6.78699 17.1454 6.89923 17.1851C7.18444 17.2864 7.48 17.2692 7.75325 16.9577C7.95782 16.7243 8.08765 16.3531 8.1022 15.9026C8.12242 15.2835 7.92904 14.4562 7.89835 14.0778C7.70383 11.6841 7.31409 9.28985 7.30023 6.88466C7.29804 6.48609 6.97268 6.1644 6.57411 6.16658C6.17552 6.16913 5.85346 6.49447 5.85601 6.89305C5.86985 9.3344 6.26102 11.7649 6.45839 14.1949C6.46919 14.3242 6.50102 14.5091 6.53622 14.7203Z" fill="#3B3B3B"/>
<path fill-rule="evenodd" clip-rule="evenodd" d="M13.3392 5.1838C12.5103 5.35903 11.6813 5.50642 10.9957 6.03495C10.2784 6.58827 9.8856 7.42491 9.71285 8.3707C9.49251 9.57731 9.63535 10.9661 9.7175 11.9549C9.76021 12.4669 9.75345 13.177 9.86981 13.8124C9.97007 14.3588 10.163 14.8535 10.4772 15.2089C10.971 15.7673 11.7675 15.8616 12.6041 15.5714C13.5706 15.2361 14.5586 14.3993 14.8412 13.8966C15.0367 13.5493 14.9134 13.1085 14.5657 12.9133C14.2183 12.7178 13.7778 12.8411 13.5823 13.1884C13.4031 13.5073 12.7438 13.9941 12.1306 14.207C11.9937 14.2543 11.8589 14.288 11.7329 14.2917C11.6673 14.2938 11.6016 14.2999 11.5595 14.2525C11.3533 14.019 11.2953 13.6534 11.2507 13.2848C11.1882 12.7711 11.1906 12.2379 11.1572 11.8349C11.0835 10.9507 10.9368 9.7092 11.1337 8.63012C11.2394 8.05154 11.4389 7.51751 11.8781 7.17894C12.3876 6.7861 13.0211 6.7275 13.6377 6.59717C14.0277 6.515 14.2775 6.13139 14.195 5.7414C14.1128 5.35143 13.7292 5.10163 13.3392 5.1838Z" fill="#3B3B3B"/>
<path fill-rule="evenodd" clip-rule="evenodd" d="M13.0907 8.98176C12.4395 9.29473 11.7442 9.61521 11.0527 9.82454C10.6712 9.94004 10.4551 10.3435 10.5703 10.725C10.6858 11.1065 11.0891 11.3226 11.4707 11.2071C12.2323 10.9767 12.9995 10.6284 13.7163 10.2841C14.0754 10.1114 14.2271 9.67942 14.0545 9.32029C13.8818 8.96079 13.4502 8.80945 13.0907 8.98176Z" fill="#3B3B3B"/>
<path fill-rule="evenodd" clip-rule="evenodd" d="M21.7827 9.80695C21.2885 9.14332 20.7638 8.48828 20.2051 7.88573C20.1595 7.83677 19.5914 7.31836 19.2483 7.11798C19.0168 6.98294 18.8074 6.94989 18.6834 6.95553C18.3228 6.97194 18.094 7.15522 17.9873 7.48318C17.8853 7.79763 17.8375 8.12821 17.8203 8.46722C17.3376 7.44007 16.9019 6.38674 16.6604 5.28867C16.6404 5.19799 16.6227 5.15514 16.6198 5.1474C16.5311 4.92162 16.3932 4.83939 16.3442 4.80726C16.1035 4.64896 15.8786 4.66215 15.6857 4.73733C15.6621 4.74626 15.1422 4.94621 15.2344 5.52905C15.2418 5.57607 15.3079 5.91171 15.3255 6.04241C15.3411 6.15601 15.3821 6.25969 15.4423 6.3488C15.8668 7.80147 16.5586 9.18852 17.2214 10.5423C17.3645 10.8348 17.4726 11.1343 17.5378 11.4532C17.5569 11.5464 17.5561 11.755 17.5718 11.8581C17.5988 12.0327 17.6636 12.152 17.7057 12.2135C17.9244 12.5334 18.2117 12.5794 18.4823 12.514C18.5979 12.4862 18.8301 12.421 18.9857 12.0973C19.3358 11.3702 19.3421 10.5479 19.2935 9.71675C19.2792 9.47087 19.2585 9.22467 19.2506 8.98201C19.8598 9.6522 20.4245 10.3859 20.9533 11.1175C21.0114 11.1978 21.604 11.9323 21.7657 12.0453C22.17 12.3291 22.5042 12.1482 22.649 12.0377C22.8698 11.8689 23.0521 11.569 23.1398 11.1797C23.2529 10.676 23.2195 9.97315 23.2269 9.6915C23.2772 7.79578 23.3092 5.81309 22.9778 3.94283C22.9084 3.55025 22.5334 3.28822 22.1408 3.35761C21.7482 3.42699 21.4862 3.80239 21.5556 4.19461C21.8701 5.97072 21.8305 7.85361 21.7829 9.65329C21.7819 9.69482 21.7822 9.7469 21.7827 9.80695Z" fill="#3B3B3B"/>
<path fill-rule="evenodd" clip-rule="evenodd" d="M24.9889 3.56402C25.1862 4.84136 25.3845 6.10716 25.4894 7.41561C25.5213 7.81316 25.8696 8.10998 26.2672 8.07809C26.6643 8.04619 26.9612 7.69786 26.9293 7.30032C26.7814 5.45492 26.4529 3.69329 26.1955 1.86728C26.0965 1.16152 25.4272 1.22555 25.3861 1.23069C25.2955 1.242 24.8008 1.32139 24.7555 1.89363C24.7526 1.92856 24.7635 2.17714 24.7626 2.27327C24.7601 2.49334 24.7449 2.70772 24.7225 2.92714C24.6967 3.18002 24.8044 3.41581 24.9889 3.56402Z" fill="#3B3B3B"/>
<path fill-rule="evenodd" clip-rule="evenodd" d="M26.4777 11.113C26.5622 10.8938 26.538 10.6374 26.3907 10.4321C26.158 10.1082 25.7066 10.0343 25.3827 10.267C25.0836 10.4818 25.0157 10.7586 25.0369 11.1024C25.0616 11.5003 25.4049 11.8034 25.8028 11.7784C26.1666 11.756 26.451 11.4667 26.4777 11.113Z" fill="#3B3B3B"/>
<path fill-rule="evenodd" clip-rule="evenodd" d="M12.1549 24.3356C12.0893 24.1761 12.0364 24.0501 12.0236 24.023C11.4172 22.7358 10.7529 21.4622 10.0212 20.2416C9.81616 19.8997 9.37237 19.7886 9.0304 19.9936C8.68843 20.1986 8.57732 20.6424 8.78233 20.9844C9.48938 22.1636 10.1309 23.3947 10.7171 24.6387C10.7618 24.7335 11.0495 25.5707 11.2672 25.9249C11.4646 26.2455 11.7266 26.3698 11.8787 26.4003C12.1204 26.4487 12.5056 26.3808 12.8356 25.9839C13.2665 25.4659 13.8628 24.0539 13.9612 23.8195C14.1414 23.3882 14.2986 22.9341 14.4454 22.4921C14.7237 21.6537 14.9029 20.795 15.068 19.9291C15.1429 19.5373 14.8855 19.159 14.4937 19.0842C14.1023 19.0097 13.7236 19.2671 13.6492 19.6586C13.496 20.4618 13.3329 21.2591 13.0747 22.0368C12.939 22.4446 12.7948 22.8643 12.6285 23.2623C12.5783 23.3816 12.3819 23.8749 12.1549 24.3356Z" fill="#3B3B3B"/>
</svg>
