<svg width="20" height="20" viewBox="0 0 20 20" fill="none" xmlns="http://www.w3.org/2000/svg">
<circle cx="10" cy="10" r="9.5" fill="#34C759" stroke="#F8F8F8"/>
<path fill-rule="evenodd" clip-rule="evenodd" d="M11.4285 8.30088L8.44322 11.1033C8.30601 11.232 8.0826 11.232 7.94539 11.1033C7.80818 10.9747 7.80818 10.7652 7.94539 10.6365L10.9306 7.83408C11.0678 7.70542 11.2913 7.70542 11.4285 7.83408C11.4971 7.89841 11.5323 7.98253 11.5323 8.06665C11.5323 8.15242 11.4971 8.23655 11.4285 8.30088ZM12.5486 7.95135L11.801 7.25198C11.458 6.93033 10.9003 6.93033 10.5573 7.25198L7.35217 10.2623C7.2519 10.3546 7.17802 10.4701 7.13404 10.5971L6.4902 12.5204C6.404 12.7744 6.65907 13.0136 6.92998 12.9344L8.98464 12.329C9.11834 12.2894 9.24148 12.2202 9.34175 12.1261L12.5486 9.11587C12.8917 8.79423 12.8917 8.273 12.5486 7.95135Z" fill="white"/>
</svg>
