<svg width="45" height="23" viewBox="0 0 45 23" fill="none" xmlns="http://www.w3.org/2000/svg">
<path fill-rule="evenodd" clip-rule="evenodd" d="M42.6053 3.04183C34.1594 18.7468 17.2879 25.1317 1.61787 16.2902C1.09622 15.9958 0.434695 16.1799 0.140284 16.6951C-0.154126 17.2195 0.0299 17.8819 0.551559 18.1763C17.3477 27.6619 35.4622 20.8997 44.5153 4.07226C44.7987 3.54784 44.6009 2.88533 44.0737 2.60012C43.5465 2.32411 42.8887 2.51741 42.6053 3.04183Z" fill="white"/>
<path d="M14.8049 9.55469C16.5496 9.55469 17.9639 8.1404 17.9639 6.39575C17.9639 4.65111 16.5496 3.23682 14.8049 3.23682C13.0603 3.23682 11.646 4.65111 11.646 6.39575C11.646 8.1404 13.0603 9.55469 14.8049 9.55469Z" fill="white"/>
<path d="M27.8821 6.1944C29.5927 6.1944 30.9794 4.80775 30.9794 3.0972C30.9794 1.38665 29.5927 0 27.8821 0C26.1716 0 24.7849 1.38665 24.7849 3.0972C24.7849 4.80775 26.1716 6.1944 27.8821 6.1944Z" fill="white"/>
</svg>
